<svg xmlns="http://www.w3.org/2000/svg" width="64" height="64" fill="none">
    <path fill="currentColor"
        d="M61.274 32a28.954 28.954 0 0 1-8.52 20.506A29.137 29.137 0 0 1 32.182 61a29.137 29.137 0 0 1-20.57-8.494A28.954 28.954 0 0 1 3.091 32h11.636c0 4.615 1.84 9.04 5.112 12.304A17.482 17.482 0 0 0 32.183 49.4c4.629 0 9.069-1.833 12.342-5.096A17.373 17.373 0 0 0 49.637 32h11.637Z" />
    <ellipse cx="46.727" cy="13.875" fill="currentColor" rx="10.909" ry="10.875" />
    <ellipse cx="17.636" cy="13.875" fill="currentColor" rx="10.909" ry="10.875" />
</svg>
